<?xml version="1.0" encoding="UTF-8" standalone="no"?>
<!DOCTYPE svg PUBLIC "-//W3C//DTD SVG 1.1//EN" "http://www.w3.org/Graphics/SVG/1.1/DTD/svg11.dtd">
<svg width="100%" height="100%" viewBox="0 0 1749 2481" version="1.1" xmlns="http://www.w3.org/2000/svg" xmlns:xlink="http://www.w3.org/1999/xlink" xml:space="preserve" xmlns:serif="http://www.serif.com/" style="fill-rule:evenodd;clip-rule:evenodd;stroke-linejoin:round;stroke-miterlimit:2;">
    <g id="wo" transform="matrix(1.48064,0,0,1.48064,-466.253,-510.578)">
        <g transform="matrix(1,0,0,1,15.2678,33.8025)">
            <circle cx="889.926" cy="1206.36" r="590.295" style="fill:rgb(254,191,19);"/>
            <clipPath id="_clip1">
                <circle cx="889.926" cy="1206.36" r="590.295"/>
            </clipPath>
            <g clip-path="url(#_clip1)">
                <g transform="matrix(1,0,0,1,-15.2678,-33.8025)">
                    <path d="M451.498,1617.64C453.218,1611.89 454.579,1605.69 457.689,1600.03C530.198,1468.03 780.336,1413.14 780.336,1413.14L781.349,1326.93L1015.79,1324.27L1016.1,1418.78C1129.23,1452.38 1284.65,1463.58 1341.07,1607.13C1338.14,1627.62 1327.83,1647.94 1312.04,1667.7C1206.12,1768.53 1062.83,1830.45 905.193,1830.45C722.91,1830.45 559.813,1747.65 451.498,1617.64Z" style="fill:rgb(252,239,210);"/>
                </g>
                <g transform="matrix(1,0,0,1,-15.2678,-33.8025)">
                    <path d="M781.349,1326.93L781.047,1352.62C780.27,1416.4 1013.27,1431.68 1015.88,1352.62L1015.79,1324.27L781.349,1326.93Z" style="fill:rgb(247,219,193);"/>
                </g>
                <g transform="matrix(1,0,0,1,-15.2678,-33.8025)">
                    <path d="M450.045,1615.89C452.254,1610.69 454.797,1605.41 457.689,1600.03C532.334,1461.16 628.601,1445.88 699.307,1436.8C825.83,1561.84 987.466,1545.63 1103.27,1441.34C1192.36,1460.25 1299.64,1501.71 1341.07,1607.13C1362.99,1662.89 1336.18,1675.95 1320.39,1695.71C1214.47,1796.54 1056.1,1879.64 898.462,1879.64C715.362,1879.64 558.352,1746.91 450.045,1615.89Z" style="fill:white;"/>
                </g>
                <g transform="matrix(1,0,0,1,-15.2678,-33.8025)">
                    <path d="M1277.59,1518.69C1274.04,1639.06 809.291,1851.58 517.226,1517.44C533.992,1499.99 551.537,1485.41 569.267,1473.25C569.613,1474.17 569.966,1475.08 570.327,1475.99C738.426,1689.02 1115.99,1643.68 1223.3,1482.41C1237.03,1491.87 1265.37,1507.11 1277.59,1518.69Z" style="fill:rgb(229,235,238);"/>
                </g>
            </g>
        </g>
        <path d="M781.173,586.98C781.173,586.98 687.408,577.112 657.046,615.664C625.999,655.086 526.797,820.82 530.476,941.286C534.156,1061.75 537.092,1136.37 574.438,1168.08C611.785,1199.79 741.478,1270.01 781.173,1286.94C820.868,1303.87 952.392,1288.87 1055.27,1279.19C1158.14,1269.52 1160.58,1254.93 1182.48,1218.78C1204.38,1182.62 1271.7,1110.14 1272.94,1031.96C1274.18,953.793 1254.11,799.203 1219.47,744.979C1184.83,690.756 1139.59,576.594 1064.27,568.672C988.957,560.75 865.799,512.452 828.796,546.25C791.793,580.048 781.173,586.98 781.173,586.98Z"/>
        <path d="M874.016,591.699C874.016,591.699 607.207,575.034 637.368,936.509C637.368,936.509 588.184,935.91 582.696,978.258C577.208,1020.61 579.736,1074.69 579.736,1074.69C579.736,1074.69 596.123,1116.01 630.189,1117.27C630.189,1117.27 676.667,1354.86 898.86,1352.6C1102.78,1350.53 1168.09,1139.7 1166.95,1116.16C1166.95,1116.16 1200.18,1122.39 1217.26,1073.3L1217.05,985.036C1217.05,985.036 1212.52,943.073 1164.16,932.759C1164.16,932.759 1216.52,544.068 874.016,591.699Z" style="fill:rgb(252,239,210);"/>
        <path d="M814.776,1171.75C830.383,1167.08 963.748,1167.26 977.452,1171.37C997.876,1177.51 960.661,1240.26 900.687,1240.16C833.072,1240.04 795.204,1177.6 814.776,1171.75Z" style="fill:rgb(68,55,43);"/>
        <clipPath id="_clip2">
            <path d="M814.776,1171.75C830.383,1167.08 963.748,1167.26 977.452,1171.37C997.876,1177.51 960.661,1240.26 900.687,1240.16C833.072,1240.04 795.204,1177.6 814.776,1171.75Z"/>
        </clipPath>
        <g clip-path="url(#_clip2)">
            <g transform="matrix(1,0,0,1,0,-1)">
                <path d="M826.367,1166.81C818.282,1167.99 826.358,1188.33 836.326,1189.21C859.076,1191.21 938.171,1191.61 959.77,1190.14C969.138,1189.5 983.347,1170.55 974.841,1169.07C952.608,1165.18 849.453,1163.46 826.367,1166.81Z" style="fill:white;"/>
            </g>
            <g transform="matrix(1,0,0,1,0,-20)">
                <path d="M836.351,1240.16C839.173,1224.57 874.182,1217.81 897.363,1226.68C905.61,1218.04 955.475,1220.44 959.735,1240.16C961.173,1246.81 918.615,1267.53 898.051,1267.53C877.487,1267.53 835.138,1246.86 836.351,1240.16Z" style="fill:rgb(236,93,112);"/>
            </g>
        </g>
        <g transform="matrix(0.717105,-0.00870501,0.00963115,0.793399,245.12,241.405)">
            <path d="M841.955,1086.56L955.307,1087.21C955.307,1087.21 943.388,1130.39 898.86,1130.6C854.332,1130.82 841.955,1086.56 841.955,1086.56Z" style="fill:rgb(247,219,193);"/>
        </g>
        <path d="M781.173,606.013L781.173,606.013C828.402,530.994 1003.06,599.376 1080.99,609.419C1184.95,622.817 1223.62,891.873 1164.16,932.759C1145.49,929.462 1102.93,915.323 1102.51,914.494C1059.15,899.567 1014.25,876.497 995.452,831.819C978.811,792.26 958.044,754.67 932.113,728.613C975.131,789.472 936.4,884.891 931.89,855.974C925.892,817.524 866.313,726.246 801.886,703.684C800.435,819.398 644.562,878.385 639.479,936.676C634.966,988.427 626.744,934.013 616.445,933.252C576.509,930.304 653.262,583.111 734.906,588.74C751.772,589.903 767.547,596.975 781.173,606.013Z"/>
        <g>
            <path d="M971.473,911.809C973.425,897.231 1008.63,882.592 1055.23,889.404C1092.89,894.91 1116.52,933.841 1116.52,933.841C1071.39,912.83 1022.75,906.763 971.473,911.809Z"/>
            <g transform="matrix(1.03908,0.0815815,-0.0839217,1.06889,51.674,-158.083)">
                <ellipse cx="1030.11" cy="1009.5" rx="37.324" ry="47.842" style="fill:white;"/>
                <clipPath id="_clip3">
                    <ellipse cx="1030.11" cy="1009.5" rx="37.324" ry="47.842"/>
                </clipPath>
                <g clip-path="url(#_clip3)">
                    <g transform="matrix(0.954173,2.01357e-17,4.54003e-17,0.876356,48.6975,122.273)">
                        <ellipse cx="1030.11" cy="1009.5" rx="37.324" ry="47.842"/>
                    </g>
                    <g transform="matrix(0.520893,-2.71449e-17,2.49581e-17,0.0994141,527.738,930.297)">
                        <ellipse cx="1030.11" cy="1009.5" rx="37.324" ry="47.842" style="fill:white;"/>
                    </g>
                </g>
            </g>
        </g>
        <g transform="matrix(-1,0,0,1,1796.91,-1.70454)">
            <path d="M971.473,911.809C973.425,897.231 1008.63,882.592 1055.23,889.404C1092.89,894.91 1116.52,933.841 1116.52,933.841C1071.39,912.83 1022.75,906.763 971.473,911.809Z"/>
            <g transform="matrix(-1.05292,-0.0633646,-0.0624975,1.03852,2185.37,23.4039)">
                <ellipse cx="1030.11" cy="1009.5" rx="37.324" ry="47.842" style="fill:white;"/>
                <clipPath id="_clip4">
                    <ellipse cx="1030.11" cy="1009.5" rx="37.324" ry="47.842"/>
                </clipPath>
                <g clip-path="url(#_clip4)">
                    <g transform="matrix(0.954173,-6.34789e-18,4.54003e-17,0.876356,48.5106,122.634)">
                        <ellipse cx="1030.11" cy="1009.5" rx="37.324" ry="47.842"/>
                    </g>
                    <g transform="matrix(0.520893,-4.16026e-17,2.49581e-17,0.0994141,527.551,930.657)">
                        <ellipse cx="1030.11" cy="1009.5" rx="37.324" ry="47.842" style="fill:white;"/>
                    </g>
                </g>
            </g>
        </g>
    </g>
</svg>
